<svg xmlns="http://www.w3.org/2000/svg" xmlns:xlink="http://www.w3.org/1999/xlink" width="500" zoomAndPan="magnify" viewBox="0 0 375 374.999991" height="500" preserveAspectRatio="xMidYMid meet" version="1.0"><defs><clipPath id="38e73b389b"><path d="M 84.144531 34 L 251 34 L 251 371 L 84.144531 371 Z M 84.144531 34 " clip-rule="nonzero"/></clipPath><clipPath id="a7f2cd6c83"><path d="M 84.144531 0 L 236 0 L 236 371 L 84.144531 371 Z M 84.144531 0 " clip-rule="nonzero"/></clipPath></defs><g clip-path="url(#38e73b389b)"><path fill="#209664" d="M 131.589844 36.714844 C 148.835938 40.636719 164.050781 51.007812 175.742188 64.40625 C 176.589844 65.371094 177.417969 66.359375 178.226562 67.359375 C 179.042969 68.367188 179.84375 69.390625 180.625 70.4375 C 181.640625 71.796875 182.625 73.175781 183.578125 74.578125 C 194.585938 90.867188 201.351562 110.816406 198.449219 130.261719 C 195.503906 150 183.25 166.847656 172.761719 183.820312 C 163.582031 198.652344 155.304688 215.519531 155.921875 232.613281 C 155.941406 233.363281 155.988281 234.117188 156.054688 234.875 C 156.121094 235.640625 156.203125 236.410156 156.296875 237.175781 C 156.425781 238.125 156.582031 239.074219 156.765625 240.023438 C 159.519531 254.105469 168.820312 266.09375 179.511719 275.660156 C 190.199219 285.222656 202.449219 292.878906 213.515625 302.011719 C 219.859375 307.242188 225.839844 313.011719 231.085938 319.339844 C 231.773438 320.171875 232.449219 321.011719 233.117188 321.863281 C 233.761719 322.6875 234.386719 323.527344 235.007812 324.363281 C 238.546875 329.191406 241.640625 334.328125 244.164062 339.773438 C 248.652344 349.484375 251.164062 360.269531 250.964844 370.921875 L 84.347656 370.921875 L 84.347656 41.113281 C 99.429688 35.1875 115.859375 33.128906 131.589844 36.714844 Z M 131.589844 36.714844 " fill-opacity="1" fill-rule="nonzero"/></g><g clip-path="url(#a7f2cd6c83)"><path fill="#1c73e6" d="M 96.1875 0 C 126.285156 0.132812 152.847656 18.472656 168.738281 43.242188 C 174.058594 51.535156 178.292969 60.777344 180.625 70.4375 C 182.234375 77.113281 182.9375 83.992188 182.464844 90.875 C 181.378906 106.484375 174.015625 120.519531 165.816406 133.515625 C 157.175781 147.226562 147.324219 160.445312 141.988281 175.921875 C 139.347656 183.585938 137.886719 191.691406 138.695312 199.800781 C 139.453125 207.417969 142.390625 214.609375 146.519531 220.996094 C 149.25 225.222656 152.433594 229.050781 155.914062 232.605469 C 163.875 240.726562 173.398438 247.375 182.632812 253.941406 C 195.511719 263.09375 207.992188 272.777344 217.796875 285.304688 C 226.699219 296.683594 233.144531 309.996094 234.992188 324.355469 C 235.140625 325.550781 235.269531 326.753906 235.355469 327.953125 C 235.972656 336.261719 234.933594 344.75 231.980469 352.5625 C 229.4375 359.296875 225.640625 365.394531 221.054688 370.914062 L 217.632812 370.914062 C 217.613281 370.558594 217.722656 370.179688 218.011719 369.847656 C 220.511719 366.945312 222.78125 363.875 224.75 360.589844 C 232.269531 348.042969 234.015625 333.390625 231.070312 319.335938 C 230.660156 317.382812 230.164062 315.445312 229.578125 313.53125 C 225.105469 298.867188 215.855469 286.160156 204.933594 275.59375 C 193.421875 264.460938 179.761719 256.105469 167.121094 246.375 C 163.398438 243.503906 159.734375 240.453125 156.292969 237.183594 C 148.792969 230.054688 142.335938 221.847656 138.570312 212.101562 C 126.566406 181.046875 150.875 152.558594 165.867188 127.6875 C 173.933594 114.304688 180.222656 99.835938 179.519531 83.902344 C 179.222656 77.242188 177.878906 70.703125 175.742188 64.414062 C 172.597656 55.171875 167.722656 46.460938 161.921875 38.710938 C 153.636719 27.625 143.003906 18.144531 130.734375 11.707031 C 116.566406 4.25 100.585938 1.640625 84.746094 3.769531 C 84.605469 3.785156 84.472656 3.789062 84.347656 3.777344 L 84.347656 0.808594 C 88.277344 0.289062 92.226562 -0.015625 96.1875 0 Z M 96.1875 0 " fill-opacity="1" fill-rule="nonzero"/></g></svg>